<svg xmlns="http://www.w3.org/2000/svg" width="92.351" height="99.913" viewBox="0 0 92.351 99.913">
  <g id="noun-directory-submission-995443" transform="translate(-8.099 9.336)">
    <g id="Group_2173" data-name="Group 2173" transform="translate(8.599 -8.836)">
      <path id="Path_7021" data-name="Path 7021" d="M49.5,54.656l-4.537-4.537L43.3,51.631l6.2,6.2L63.869,43.464,62.205,41.8Z" transform="translate(18.71 21.722)" fill="#a16232" stroke="#a16232" stroke-width="1"/>
      <path id="Path_7022" data-name="Path 7022" d="M93.651,71.036a19.132,19.132,0,0,0-14.822-18.6V12.656h-18V11.6A4.227,4.227,0,0,0,56.6,7.362H49.034a8.7,8.7,0,0,0-17.242,0H24.23A4.227,4.227,0,0,0,20,11.6v1.059H2.3V98.713H78.829V89.488A18.836,18.836,0,0,0,93.651,71.036ZM22.415,11.6a2,2,0,0,1,1.966-1.966h9.68V8.421a6.352,6.352,0,1,1,12.7,0V9.48h9.68a2,2,0,0,1,1.966,1.966v5.294h-36ZM76.561,96.445H4.569V14.924H20.3v4.084H60.831V14.924H76.561V51.979c-.6,0-1.361-.151-1.966-.151a19.057,19.057,0,0,0,0,38.113,8.624,8.624,0,0,0,1.966-.151Zm-1.966-8.621A16.788,16.788,0,1,1,91.383,71.036,16.847,16.847,0,0,1,74.595,87.824Z" transform="translate(-2.3 0.2)" fill="#a16232" stroke="#a16232" stroke-width="1"/>
      <rect id="Rectangle_48" data-name="Rectangle 48" width="24.35" height="2.269" transform="translate(33.425 54.145)" fill="#a16232" stroke="#a16232" stroke-width="1"/>
      <rect id="Rectangle_49" data-name="Rectangle 49" width="17.242" height="2.269" transform="translate(33.425 61.102)" fill="#a16232" stroke="#a16232" stroke-width="1"/>
      <path id="Path_7023" data-name="Path 7023" d="M8.5,51.1H26.952V32.5H8.5Zm2.269-16.334H24.683V48.683H10.769Z" transform="translate(0.877 16.957)" fill="#a16232" stroke="#a16232" stroke-width="1"/>
      <rect id="Rectangle_50" data-name="Rectangle 50" width="34.332" height="2.269" transform="translate(33.425 30.249)" fill="#a16232" stroke="#a16232" stroke-width="1"/>
      <rect id="Rectangle_51" data-name="Rectangle 51" width="29.341" height="2.269" transform="translate(33.425 37.206)" fill="#a16232" stroke="#a16232" stroke-width="1"/>
      <path id="Path_7024" data-name="Path 7024" d="M8.5,35.252H26.952V16.8H8.5Zm2.269-16.334H24.683V32.832H10.769Z" transform="translate(0.877 8.911)" fill="#a16232" stroke="#a16232" stroke-width="1"/>
      <rect id="Rectangle_52" data-name="Rectangle 52" width="16.788" height="2.269" transform="translate(33.425 78.042)" fill="#a16232" stroke="#a16232" stroke-width="1"/>
      <rect id="Rectangle_53" data-name="Rectangle 53" width="22.838" height="2.269" transform="translate(33.425 84.999)" fill="#a16232" stroke="#a16232" stroke-width="1"/>
      <path id="Path_7025" data-name="Path 7025" d="M8.5,66.9H26.952V48.3H8.5Zm2.269-16.334H24.683V64.483H10.769Z" transform="translate(0.877 25.053)" fill="#a16232" stroke="#a16232" stroke-width="1"/>
      <rect id="Rectangle_54" data-name="Rectangle 54" width="2.42" height="2.269" transform="translate(37.055 7.865)" fill="#a16232" stroke="#a16232" stroke-width="1"/>
    </g>
  </g>
</svg>
